Coda-FF.ufo
<glyph name="plus" format="1">
  <advance width="1030"/>
  <unicode hex="002B"/>
  <outline>
    <contour>
      <point x="431" y="223" type="line"/>
      <point x="431" y="585" type="line"/>
      <point x="124" y="585" type="line"/>
      <point x="124" y="754" type="line"/>
      <point x="431" y="754" type="line"/>
      <point x="431" y="1117" type="line"/>
      <point x="597" y="1117" type="line"/>
      <point x="597" y="754" type="line"/>
      <point x="905" y="754" type="line"/>
      <point x="905" y="585" type="line"/>
      <point x="597" y="585" type="line"/>
      <point x="597" y="223" type="line"/>
    </contour>
  </outline>
</glyph>
<glyph name="two" format="1">
  <advance width="1176"/>
  <unicode hex="0032"/>
  <outline>
    <contour>
      <point x="326" y="146" type="curve"/>
      <point x="1008" y="146" type="line"/>
      <point x="1008" y="9" type="line"/>
      <point x="145" y="9" type="line"/>
      <point x="146" y="315"/>
      <point x="193" y="427"/>
      <point x="365" y="546" type="curve" smooth="yes"/>
      <point x="695" y="774"/>
      <point x="840" y="763"/>
      <point x="840" y="1098" type="curve" smooth="yes"/>
      <point x="840" y="1287"/>
      <point x="834" y="1368"/>
      <point x="599" y="1368" type="curve" smooth="yes"/>
      <point x="394" y="1368"/>
      <point x="326" y="1339"/>
      <point x="308" y="1125" type="curve"/>
      <point x="160" y="1160" type="line"/>
      <point x="159" y="1169"/>
      <point x="159" y="1178"/>
      <point x="159" y="1187" type="curve" smooth="yes"/>
      <point x="159" y="1423"/>
      <point x="314" y="1507"/>
      <point x="584" y="1507" type="curve" smooth="yes"/>
      <point x="895" y="1507"/>
      <point x="1026" y="1439"/>
      <point x="1026" y="1098" type="curve" smooth="yes"/>
      <point x="1026" y="818"/>
      <point x="930" y="709"/>
      <point x="726" y="594" type="curve" smooth="yes"/>
      <point x="485" y="459"/>
      <point x="331" y="398"/>
    </contour>
  </outline>
</glyph>
<glyph name="four" format="1">
  <advance width="1204"/>
  <unicode hex="0034"/>
  <outline>
    <contour>
      <point x="316" y="521" type="curve"/>
      <point x="745" y="521" type="line"/>
      <point x="745" y="1379" type="line"/>
      <point x="715" y="1316"/>
      <point x="680" y="1250"/>
      <point x="648" y="1185" type="curve" smooth="yes"/>
      <point x="413" y="713" type="line" smooth="yes"/>
      <point x="381" y="648"/>
      <point x="346" y="582"/>
    </contour>
    <contour>
      <point x="930" y="521" type="line"/>
      <point x="1069" y="521" type="line"/>
      <point x="1069" y="390" type="line"/>
      <point x="930" y="390" type="line"/>
      <point x="930" y="0" type="line"/>
      <point x="745" y="0" type="line"/>
      <point x="745" y="389" type="line"/>
      <point x="123" y="389" type="line"/>
      <point x="123" y="539" type="line"/>
      <point x="641" y="1482" type="line"/>
      <point x="930" y="1482" type="line"/>
    </contour>
  </outline>
</glyph>
<glyph name="seven" format="1">
  <advance width="981"/>
  <unicode hex="0037"/>
  <outline>
    <contour>
      <point x="118" y="1330" type="line"/>
      <point x="118" y="1482" type="line"/>
      <point x="862" y="1482" type="line"/>
      <point x="862" y="1312" type="line"/>
      <point x="700" y="893"/>
      <point x="540" y="457"/>
      <point x="415" y="0" type="curve"/>
      <point x="231" y="0" type="line"/>
      <point x="365" y="455"/>
      <point x="522" y="897"/>
      <point x="693" y="1330" type="curve"/>
    </contour>
  </outline>
</glyph>
<glyph name="semicolon" format="1">
  <advance width="601"/>
  <unicode hex="003B"/>
  <outline>
    <contour>
      <point x="140" y="-97" type="curve"/>
      <point x="140" y="-29" type="line"/>
      <point x="228" y="-29"/>
      <point x="312" y="41"/>
      <point x="312" y="130" type="curve"/>
      <point x="229" y="130"/>
      <point x="167" y="199"/>
      <point x="167" y="285" type="curve" smooth="yes"/>
      <point x="167" y="369"/>
      <point x="222" y="439"/>
      <point x="314" y="439" type="curve" smooth="yes"/>
      <point x="401" y="439"/>
      <point x="456" y="354"/>
      <point x="456" y="260" type="curve" smooth="yes"/>
      <point x="456" y="90"/>
      <point x="338" y="-101"/>
      <point x="199" y="-101" type="curve" smooth="yes"/>
      <point x="170" y="-101"/>
      <point x="151" y="-100"/>
    </contour>
    <contour>
      <point x="452" y="1079" type="curve" smooth="yes"/>
      <point x="452" y="991"/>
      <point x="400" y="925"/>
      <point x="312" y="925" type="curve" smooth="yes"/>
      <point x="228" y="925"/>
      <point x="172" y="995"/>
      <point x="172" y="1079" type="curve" smooth="yes"/>
      <point x="172" y="1165"/>
      <point x="223" y="1233"/>
      <point x="312" y="1233" type="curve" smooth="yes"/>
      <point x="394" y="1233"/>
      <point x="452" y="1163"/>
    </contour>
  </outline>
</glyph>
<glyph name="equal" format="1">
  <advance width="1124"/>
  <unicode hex="003D"/>
  <outline>
    <contour>
      <point x="144" y="503" type="line"/>
      <point x="979" y="503" type="line"/>
      <point x="979" y="314" type="line"/>
      <point x="144" y="314" type="line"/>
    </contour>
    <contour>
      <point x="144" y="881" type="line"/>
      <point x="979" y="881" type="line"/>
      <point x="979" y="692" type="line"/>
      <point x="144" y="692" type="line"/>
    </contour>
  </outline>
</glyph>
<glyph name="J" format="1">
  <advance width="757"/>
  <unicode hex="004A"/>
  <outline>
    <contour>
      <point x="396" y="307" type="curve" smooth="yes"/>
      <point x="396" y="1490" type="line"/>
      <point x="599" y="1490" type="line"/>
      <point x="599" y="432" type="line" smooth="yes"/>
      <point x="599" y="153"/>
      <point x="587" y="-24"/>
      <point x="348" y="-24" type="curve" smooth="yes"/>
      <point x="263" y="-24"/>
      <point x="135" y="5"/>
      <point x="60" y="39" type="curve"/>
      <point x="81" y="193" type="line"/>
      <point x="147" y="168"/>
      <point x="248" y="148"/>
      <point x="286" y="148" type="curve" smooth="yes"/>
      <point x="381" y="148"/>
      <point x="396" y="219"/>
    </contour>
    <contour>
      <point x="363" y="1490" type="move" smooth="yes"/>
    </contour>
  </outline>
</glyph>
<glyph name="K" format="1">
  <advance width="1219"/>
  <unicode hex="004B"/>
  <outline>
    <contour>
      <point x="1183" y="1490" type="line"/>
      <point x="609" y="780" type="line"/>
      <point x="1249" y="0" type="line"/>
      <point x="1004" y="0" type="line"/>
      <point x="441" y="684" type="line"/>
      <point x="363" y="591" type="line"/>
      <point x="363" y="0" type="line"/>
      <point x="161" y="0" type="line"/>
      <point x="161" y="1490" type="line"/>
      <point x="363" y="1490" type="line"/>
      <point x="363" y="935" type="line" smooth="yes"/>
      <point x="363" y="878"/>
      <point x="362" y="808"/>
      <point x="362" y="754" type="curve"/>
      <point x="395" y="798"/>
      <point x="440" y="854"/>
      <point x="477" y="901" type="curve" smooth="yes"/>
      <point x="942" y="1490" type="line"/>
    </contour>
    <contour>
      <point x="615" y="1490" type="move" smooth="yes"/>
    </contour>
    <contour>
      <point x="615" y="0" type="move" smooth="yes"/>
    </contour>
  </outline>
</glyph>
<glyph name="L" format="1">
  <advance width="1033"/>
  <unicode hex="004C"/>
  <outline>
    <contour>
      <point x="364" y="153" type="line"/>
      <point x="938" y="153" type="line"/>
      <point x="918" y="0" type="line"/>
      <point x="161" y="0" type="line"/>
      <point x="161" y="1490" type="line"/>
      <point x="364" y="1490" type="line"/>
    </contour>
    <contour>
      <point x="500" y="1490" type="move" smooth="yes"/>
    </contour>
    <contour>
      <point x="500" y="0" type="move" smooth="yes"/>
    </contour>
  </outline>
</glyph>
<glyph name="M" format="1">
  <advance width="1742"/>
  <unicode hex="004D"/>
  <outline>
    <contour>
      <point x="380" y="1192" type="line"/>
      <point x="336" y="0" type="line"/>
      <point x="149" y="0" type="line"/>
      <point x="223" y="1499" type="line"/>
      <point x="443" y="1499" type="line"/>
      <point x="873" y="326" type="line"/>
      <point x="1295" y="1499" type="line"/>
      <point x="1515" y="1499" type="line"/>
      <point x="1594" y="0" type="line"/>
      <point x="1396" y="0" type="line"/>
      <point x="1344" y="1201" type="line"/>
      <point x="930" y="0" type="line"/>
      <point x="814" y="0" type="line"/>
    </contour>
  </outline>
</glyph>
<glyph name="R" format="1">
  <advance width="1340"/>
  <unicode hex="0052"/>
  <outline>
    <contour>
      <point x="994" y="1027" type="curve" smooth="yes"/>
      <point x="994" y="1140" type="line" smooth="yes"/>
      <point x="994" y="1293"/>
      <point x="980" y="1337"/>
      <point x="700" y="1337" type="curve" smooth="yes"/>
      <point x="363" y="1337" type="line"/>
      <point x="363" y="800" type="line"/>
      <point x="712" y="800" type="line" smooth="yes"/>
      <point x="965" y="800"/>
      <point x="994" y="857"/>
    </contour>
    <contour>
      <point x="1194" y="1090" type="curve" smooth="yes"/>
      <point x="1194" y="819"/>
      <point x="1101" y="740"/>
      <point x="943" y="714" type="curve"/>
      <point x="1071" y="688"/>
      <point x="1125" y="602"/>
      <point x="1149" y="465" type="curve"/>
      <point x="1226" y="0" type="line"/>
      <point x="1009" y="0" type="line"/>
      <point x="947" y="434" type="line" smooth="yes"/>
      <point x="934" y="522"/>
      <point x="897" y="590"/>
      <point x="849" y="618" type="curve" smooth="yes"/>
      <point x="807" y="642"/>
      <point x="742" y="641"/>
      <point x="672" y="641" type="curve" smooth="yes"/>
      <point x="363" y="641" type="line"/>
      <point x="363" y="0" type="line"/>
      <point x="161" y="0" type="line"/>
      <point x="161" y="1490" type="line"/>
      <point x="616" y="1490" type="line" smooth="yes"/>
      <point x="1004" y="1490"/>
      <point x="1194" y="1469"/>
    </contour>
    <contour>
      <point x="663" y="1490" type="move" smooth="yes"/>
    </contour>
    <contour>
      <point x="663" y="0" type="move" smooth="yes"/>
    </contour>
  </outline>
</glyph>
<glyph name="T" format="1">
  <advance width="1101"/>
  <unicode hex="0054"/>
  <outline>
    <contour>
      <point x="64" y="1490" type="line"/>
      <point x="1037" y="1490" type="line"/>
      <point x="1037" y="1336" type="line"/>
      <point x="648" y="1336" type="line"/>
      <point x="648" y="0" type="line"/>
      <point x="445" y="0" type="line"/>
      <point x="445" y="1336" type="line"/>
      <point x="64" y="1336" type="line"/>
    </contour>
    <contour>
      <point x="450" y="1490" type="move" smooth="yes"/>
    </contour>
    <contour>
      <point x="450" y="0" type="move" smooth="yes"/>
    </contour>
    <contour>
      <point x="450" y="745" type="move" smooth="yes"/>
    </contour>
  </outline>
</glyph>
<glyph name="Y" format="1">
  <advance width="1175"/>
  <unicode hex="0059"/>
  <outline>
    <contour>
      <point x="588" y="727" type="line"/>
      <point x="919" y="1490" type="line"/>
      <point x="1133" y="1490" type="line"/>
      <point x="682" y="518" type="line"/>
      <point x="682" y="0" type="line"/>
      <point x="480" y="0" type="line"/>
      <point x="480" y="518" type="line"/>
      <point x="42" y="1490" type="line"/>
      <point x="263" y="1490" type="line"/>
    </contour>
    <contour>
      <point x="484" y="1490" type="move" smooth="yes"/>
    </contour>
  </outline>
</glyph>
<glyph name="Z" format="1">
  <advance width="1146"/>
  <unicode hex="005A"/>
  <outline>
    <contour>
      <point x="345" y="151" type="curve"/>
      <point x="1030" y="151" type="line"/>
      <point x="1030" y="0" type="line"/>
      <point x="141" y="0" type="line"/>
      <point x="131" y="176" type="line"/>
      <point x="364" y="563"/>
      <point x="595" y="953"/>
      <point x="830" y="1338" type="curve"/>
      <point x="196" y="1338" type="line"/>
      <point x="179" y="1490" type="line"/>
      <point x="1019" y="1490" type="line"/>
      <point x="1030" y="1311" type="line"/>
      <point x="802" y="924"/>
      <point x="576" y="535"/>
    </contour>
    <contour>
      <point x="544" y="1490" type="move" smooth="yes"/>
    </contour>
  </outline>
</glyph>
<glyph name="backslash" format="1">
  <advance width="776"/>
  <unicode hex="005C"/>
  <outline>
    <contour>
      <point x="117" y="1516" type="line"/>
      <point x="316" y="1516" type="line"/>
      <point x="659" y="-26" type="line"/>
      <point x="460" y="-26" type="line"/>
    </contour>
  </outline>
</glyph>
<glyph name="a" format="1">
  <advance width="1119"/>
  <unicode hex="0061"/>
  <outline>
    <contour>
      <point x="780" y="314" type="curve" smooth="yes"/>
      <point x="780" y="485" type="line"/>
      <point x="378" y="485"/>
      <point x="309" y="443"/>
      <point x="309" y="354" type="curve" smooth="yes"/>
      <point x="309" y="341" type="line" smooth="yes"/>
      <point x="309" y="155"/>
      <point x="311" y="122"/>
      <point x="487" y="122" type="curve" smooth="yes"/>
      <point x="713" y="122"/>
      <point x="780" y="203"/>
    </contour>
    <contour>
      <point x="977" y="726" type="curve" smooth="yes"/>
      <point x="977" y="0" type="line"/>
      <point x="821" y="0" type="line"/>
      <point x="789" y="157" type="line"/>
      <point x="746" y="10"/>
      <point x="643" y="-15"/>
      <point x="460" y="-15" type="curve" smooth="yes"/>
      <point x="194" y="-15"/>
      <point x="127" y="86"/>
      <point x="127" y="354" type="curve" smooth="yes"/>
      <point x="127" y="577"/>
      <point x="387" y="604"/>
      <point x="780" y="604" type="curve"/>
      <point x="780" y="901" type="line" smooth="yes"/>
      <point x="780" y="970"/>
      <point x="706" y="991"/>
      <point x="543" y="991" type="curve" smooth="yes"/>
      <point x="303" y="991"/>
      <point x="310" y="964"/>
      <point x="305" y="824" type="curve"/>
      <point x="152" y="830" type="line"/>
      <point x="150" y="846"/>
      <point x="150" y="862"/>
      <point x="150" y="877" type="curve" smooth="yes"/>
      <point x="150" y="1104"/>
      <point x="321" y="1128"/>
      <point x="556" y="1128" type="curve" smooth="yes"/>
      <point x="868" y="1128"/>
      <point x="977" y="1037"/>
    </contour>
    <contour>
      <point x="535" y="1097" type="move" smooth="yes"/>
    </contour>
    <contour>
      <point x="979" y="10" type="move" smooth="yes"/>
    </contour>
  </outline>
</glyph>
<glyph name="c" format="1">
  <advance width="1099"/>
  <unicode hex="0063"/>
  <outline>
    <contour>
      <point x="993" y="781" type="curve"/>
      <point x="831" y="754" type="line"/>
      <point x="810" y="893" type="line" smooth="yes"/>
      <point x="799" y="963"/>
      <point x="801" y="989"/>
      <point x="585" y="989" type="curve" smooth="yes"/>
      <point x="494" y="989"/>
      <point x="436" y="980"/>
      <point x="407" y="974" type="curve" smooth="yes"/>
      <point x="342" y="959"/>
      <point x="319" y="822"/>
      <point x="319" y="680" type="curve" smooth="yes"/>
      <point x="319" y="468" type="line" smooth="yes"/>
      <point x="319" y="144"/>
      <point x="352" y="123"/>
      <point x="567" y="123" type="curve" smooth="yes"/>
      <point x="832" y="123"/>
      <point x="810" y="196"/>
      <point x="829" y="365" type="curve"/>
      <point x="993" y="337" type="line"/>
      <point x="972" y="54"/>
      <point x="933" y="-15"/>
      <point x="576" y="-15" type="curve" smooth="yes"/>
      <point x="138" y="-15"/>
      <point x="132" y="136"/>
      <point x="132" y="619" type="curve" smooth="yes"/>
      <point x="132" y="1024"/>
      <point x="190" y="1128"/>
      <point x="575" y="1128" type="curve" smooth="yes"/>
      <point x="880" y="1128"/>
      <point x="979" y="1063"/>
    </contour>
    <contour>
      <point x="534" y="1097" type="move" smooth="yes"/>
    </contour>
    <contour>
      <point x="534" y="0" type="move" smooth="yes"/>
    </contour>
  </outline>
</glyph>
<glyph name="g" format="1">
  <advance width="1182"/>
  <unicode hex="0067"/>
  <outline>
    <contour>
      <point x="575" y="990" type="curve" smooth="yes"/>
      <point x="355" y="990"/>
      <point x="327" y="963"/>
      <point x="327" y="746" type="curve" smooth="yes"/>
      <point x="327" y="567"/>
      <point x="326" y="423"/>
      <point x="334" y="262" type="curve" smooth="yes"/>
      <point x="338" y="172"/>
      <point x="381" y="154"/>
      <point x="595" y="154" type="curve" smooth="yes"/>
      <point x="700" y="154"/>
      <point x="828" y="171"/>
      <point x="828" y="243" type="curve" smooth="yes"/>
      <point x="829" y="833" type="line" smooth="yes"/>
      <point x="829" y="942"/>
      <point x="771" y="990"/>
    </contour>
    <contour>
      <point x="828" y="975" type="curve"/>
      <point x="847" y="1097" type="line"/>
      <point x="1026" y="1097" type="line"/>
      <point x="1025" y="90" type="line" smooth="yes"/>
      <point x="1025" y="-284"/>
      <point x="961" y="-406"/>
      <point x="590" y="-406" type="curve" smooth="yes"/>
      <point x="461" y="-406"/>
      <point x="357" y="-393"/>
      <point x="278" y="-365" type="curve"/>
      <point x="291" y="-229" type="line"/>
      <point x="363" y="-249"/>
      <point x="451" y="-260"/>
      <point x="557" y="-260" type="curve" smooth="yes"/>
      <point x="805" y="-260"/>
      <point x="827" y="-197"/>
      <point x="827" y="-97" type="curve" smooth="yes"/>
      <point x="827" y="151" type="line"/>
      <point x="791" y="58"/>
      <point x="709" y="17"/>
      <point x="548" y="17" type="curve" smooth="yes"/>
      <point x="145" y="17"/>
      <point x="132" y="185"/>
      <point x="132" y="535" type="curve" smooth="yes"/>
      <point x="132" y="987"/>
      <point x="147" y="1125"/>
      <point x="503" y="1125" type="curve" smooth="yes"/>
      <point x="674" y="1125"/>
      <point x="779" y="1082"/>
    </contour>
    <contour>
      <point x="571" y="1097" type="move" smooth="yes"/>
    </contour>
  </outline>
</glyph>
<glyph name="h" format="1">
  <advance width="1185"/>
  <unicode hex="0068"/>
  <outline>
    <contour>
      <point x="1036" y="629" type="curve" smooth="yes"/>
      <point x="1036" y="0" type="line"/>
      <point x="839" y="0" type="line"/>
      <point x="839" y="666" type="line" smooth="yes"/>
      <point x="839" y="733"/>
      <point x="842" y="787"/>
      <point x="842" y="830" type="curve" smooth="yes"/>
      <point x="842" y="952"/>
      <point x="814" y="990"/>
      <point x="590" y="990" type="curve" smooth="yes"/>
      <point x="490" y="990"/>
      <point x="379" y="969"/>
      <point x="373" y="896" type="curve" smooth="yes"/>
      <point x="365" y="793"/>
      <point x="359" y="684"/>
      <point x="359" y="572" type="curve" smooth="yes"/>
      <point x="359" y="0" type="line"/>
      <point x="161" y="0" type="line"/>
      <point x="161" y="1486" type="line"/>
      <point x="359" y="1502" type="line"/>
      <point x="359" y="1014" type="line"/>
      <point x="407" y="1090"/>
      <point x="508" y="1128"/>
      <point x="657" y="1128" type="curve" smooth="yes"/>
      <point x="1011" y="1128"/>
      <point x="1037" y="990"/>
      <point x="1037" y="756" type="curve" smooth="yes"/>
      <point x="1037" y="717"/>
      <point x="1036" y="674"/>
    </contour>
    <contour>
      <point x="591" y="1097" type="move" smooth="yes"/>
    </contour>
    <contour>
      <point x="591" y="549" type="move" smooth="yes"/>
    </contour>
  </outline>
</glyph>
<glyph name="n" format="1">
  <advance width="1174"/>
  <unicode hex="006E"/>
  <outline>
    <contour>
      <point x="1024" y="609" type="curve" smooth="yes"/>
      <point x="1024" y="0" type="line"/>
      <point x="827" y="0" type="line"/>
      <point x="827" y="664" type="line" smooth="yes"/>
      <point x="827" y="971"/>
      <point x="816" y="990"/>
      <point x="649" y="990" type="curve" smooth="yes"/>
      <point x="393" y="990"/>
      <point x="353" y="924"/>
      <point x="353" y="780" type="curve" smooth="yes"/>
      <point x="353" y="0" type="line"/>
      <point x="156" y="0" type="line"/>
      <point x="156" y="1097" type="line"/>
      <point x="336" y="1097" type="line"/>
      <point x="355" y="974" type="line"/>
      <point x="392" y="1091"/>
      <point x="536" y="1128"/>
      <point x="682" y="1128" type="curve" smooth="yes"/>
      <point x="990" y="1128"/>
      <point x="1024" y="974"/>
    </contour>
    <contour>
      <point x="586" y="1097" type="move" smooth="yes"/>
    </contour>
    <contour>
      <point x="586" y="0" type="move" smooth="yes"/>
    </contour>
  </outline>
</glyph>
<glyph name="p" format="1">
  <advance width="1177"/>
  <unicode hex="0070"/>
  <outline>
    <contour>
      <point x="606" y="122" type="curve" smooth="yes"/>
      <point x="852" y="122"/>
      <point x="858" y="156"/>
      <point x="858" y="415" type="curve" smooth="yes"/>
      <point x="858" y="484"/>
      <point x="856" y="553"/>
      <point x="856" y="606" type="curve" smooth="yes"/>
      <point x="855" y="697"/>
      <point x="855" y="786"/>
      <point x="850" y="872" type="curve" smooth="yes"/>
      <point x="845" y="964"/>
      <point x="799" y="990"/>
      <point x="606" y="990" type="curve" smooth="yes"/>
      <point x="352" y="990"/>
      <point x="346" y="946"/>
      <point x="346" y="693" type="curve" smooth="yes"/>
      <point x="346" y="294" type="line" smooth="yes"/>
      <point x="346" y="181"/>
      <point x="388" y="122"/>
    </contour>
    <contour>
      <point x="1053" y="541" type="curve" smooth="yes"/>
      <point x="1053" y="145"/>
      <point x="1011" y="-15"/>
      <point x="652" y="-15" type="curve" smooth="yes"/>
      <point x="479" y="-15"/>
      <point x="375" y="26"/>
      <point x="350" y="103" type="curve"/>
      <point x="350" y="-372" type="line"/>
      <point x="153" y="-387" type="line"/>
      <point x="153" y="1097" type="line"/>
      <point x="332" y="1097" type="line"/>
      <point x="351" y="976" type="line"/>
      <point x="391" y="1076"/>
      <point x="496" y="1128"/>
      <point x="671" y="1128" type="curve" smooth="yes"/>
      <point x="1025" y="1128"/>
      <point x="1053" y="962"/>
    </contour>
  </outline>
</glyph>
<glyph name="r" format="1">
  <advance width="731"/>
  <unicode hex="0072"/>
  <outline>
    <contour>
      <point x="645" y="1122" type="curve"/>
      <point x="637" y="955" type="line"/>
      <point x="614" y="958"/>
      <point x="591" y="960"/>
      <point x="565" y="960" type="curve" smooth="yes"/>
      <point x="373" y="960"/>
      <point x="346" y="883"/>
      <point x="346" y="704" type="curve" smooth="yes"/>
      <point x="346" y="624"/>
      <point x="353" y="541"/>
      <point x="353" y="471" type="curve" smooth="yes"/>
      <point x="353" y="0" type="line"/>
      <point x="156" y="0" type="line"/>
      <point x="156" y="1097" type="line"/>
      <point x="335" y="1097" type="line"/>
      <point x="355" y="974" type="line"/>
      <point x="396" y="1069"/>
      <point x="482" y="1125"/>
      <point x="600" y="1125" type="curve" smooth="yes"/>
      <point x="615" y="1125"/>
      <point x="630" y="1124"/>
    </contour>
    <contour>
      <point x="359" y="1097" type="move" smooth="yes"/>
    </contour>
    <contour>
      <point x="359" y="0" type="move" smooth="yes"/>
    </contour>
  </outline>
</glyph>
<glyph name="s" format="1">
  <advance width="1030"/>
  <unicode hex="0073"/>
  <outline>
    <contour>
      <point x="559" y="122" type="curve" smooth="yes"/>
      <point x="773" y="122"/>
      <point x="777" y="179"/>
      <point x="777" y="363" type="curve" smooth="yes"/>
      <point x="777" y="383" type="line" smooth="yes"/>
      <point x="777" y="502"/>
      <point x="634" y="490"/>
      <point x="505" y="505" type="curve" smooth="yes"/>
      <point x="244" y="536"/>
      <point x="131" y="567"/>
      <point x="131" y="838" type="curve" smooth="yes"/>
      <point x="131" y="1076"/>
      <point x="248" y="1128"/>
      <point x="537" y="1128" type="curve" smooth="yes"/>
      <point x="766" y="1128"/>
      <point x="912" y="1114"/>
      <point x="912" y="880" type="curve"/>
      <point x="778" y="839" type="line"/>
      <point x="765" y="983"/>
      <point x="744" y="991"/>
      <point x="530" y="991" type="curve" smooth="yes"/>
      <point x="350" y="991"/>
      <point x="311" y="954"/>
      <point x="311" y="882" type="curve" smooth="yes"/>
      <point x="311" y="780" type="line" smooth="yes"/>
      <point x="311" y="685"/>
      <point x="349" y="683"/>
      <point x="589" y="653" type="curve" smooth="yes"/>
      <point x="869" y="618"/>
      <point x="957" y="594"/>
      <point x="957" y="304" type="curve" smooth="yes"/>
      <point x="957" y="49"/>
      <point x="845" y="-15"/>
      <point x="573" y="-15" type="curve" smooth="yes"/>
      <point x="295" y="-15"/>
      <point x="127" y="-5"/>
      <point x="127" y="287" type="curve"/>
      <point x="282" y="327" type="line"/>
      <point x="297" y="130"/>
      <point x="296" y="122"/>
    </contour>
    <contour>
      <point x="500" y="1097" type="move" smooth="yes"/>
    </contour>
    <contour>
      <point x="500" y="0" type="move" smooth="yes"/>
    </contour>
  </outline>
</glyph>
<glyph name="t" format="1">
  <advance width="793"/>
  <unicode hex="0074"/>
  <outline>
    <contour>
      <point x="677" y="139" type="curve"/>
      <point x="673" y="-1" type="line"/>
      <point x="619" y="-10"/>
      <point x="538" y="-15"/>
      <point x="491" y="-15" type="curve" smooth="yes"/>
      <point x="291" y="-15"/>
      <point x="257" y="77"/>
      <point x="257" y="238" type="curve" smooth="yes"/>
      <point x="257" y="985" type="line"/>
      <point x="108" y="985" type="line"/>
      <point x="108" y="1097" type="line"/>
      <point x="257" y="1097" type="line"/>
      <point x="257" y="1409" type="line"/>
      <point x="453" y="1425" type="line"/>
      <point x="453" y="1097" type="line"/>
      <point x="655" y="1097" type="line"/>
      <point x="655" y="985" type="line"/>
      <point x="453" y="985" type="line"/>
      <point x="453" y="305" type="line" smooth="yes"/>
      <point x="453" y="172"/>
      <point x="455" y="133"/>
      <point x="521" y="133" type="curve" smooth="yes"/>
      <point x="563" y="133"/>
      <point x="637" y="136"/>
    </contour>
    <contour>
      <point x="317" y="549" type="move" smooth="yes"/>
    </contour>
    <contour>
      <point x="317" y="0" type="move" smooth="yes"/>
    </contour>
  </outline>
</glyph>
<glyph name="v" format="1">
  <advance width="1037"/>
  <unicode hex="0076"/>
  <outline>
    <contour>
      <point x="515" y="171" type="line"/>
      <point x="781" y="1097" type="line"/>
      <point x="984" y="1097" type="line"/>
      <point x="621" y="0" type="line"/>
      <point x="407" y="0" type="line"/>
      <point x="52" y="1097" type="line"/>
      <point x="237" y="1097" type="line"/>
    </contour>
  </outline>
</glyph>
<glyph name="z" format="1">
  <advance width="936"/>
  <unicode hex="007A"/>
  <outline>
    <contour>
      <point x="326" y="135" type="line"/>
      <point x="843" y="135" type="line"/>
      <point x="834" y="0" type="line"/>
      <point x="144" y="0" type="line"/>
      <point x="127" y="141" type="line"/>
      <point x="640" y="960" type="line"/>
      <point x="173" y="960" type="line"/>
      <point x="164" y="1097" type="line"/>
      <point x="828" y="1097" type="line"/>
      <point x="837" y="960" type="line"/>
    </contour>
    <contour>
      <point x="418" y="1097" type="move" smooth="yes"/>
    </contour>
  </outline>
</glyph>
<glyph name="braceleft" format="1">
  <advance width="851"/>
  <unicode hex="007B"/>
  <outline>
    <contour>
      <point x="312" y="778" type="curve"/>
      <point x="598" y="663"/>
      <point x="323" y="-8"/>
      <point x="731" y="-8" type="curve"/>
      <point x="731" y="-172" type="line"/>
      <point x="504" y="-172"/>
      <point x="371" y="-90"/>
      <point x="314" y="104" type="curve" smooth="yes"/>
      <point x="273" y="246"/>
      <point x="329" y="664"/>
      <point x="134" y="664" type="curve"/>
      <point x="134" y="858" type="line"/>
      <point x="257" y="858"/>
      <point x="269" y="1033"/>
      <point x="290" y="1196" type="curve" smooth="yes"/>
      <point x="317" y="1407"/>
      <point x="359" y="1694"/>
      <point x="730" y="1694" type="curve"/>
      <point x="730" y="1530" type="line"/>
      <point x="599" y="1530"/>
      <point x="542" y="1485"/>
      <point x="503" y="1334" type="curve" smooth="yes"/>
      <point x="436" y="1073"/>
      <point x="483" y="852"/>
    </contour>
  </outline>
</glyph>
<glyph name="asciitilde" format="1">
  <advance width="1094"/>
  <unicode hex="007E"/>
  <outline>
    <contour>
      <point x="927" y="1097" type="curve"/>
      <point x="961" y="1047" type="line"/>
      <point x="922" y="884"/>
      <point x="837" y="832"/>
      <point x="734" y="832" type="curve" smooth="yes"/>
      <point x="576" y="832"/>
      <point x="444" y="966"/>
      <point x="309" y="966" type="curve" smooth="yes"/>
      <point x="261" y="966"/>
      <point x="213" y="949"/>
      <point x="163" y="903" type="curve"/>
      <point x="134" y="945" type="line"/>
      <point x="172" y="1087"/>
      <point x="250" y="1132"/>
      <point x="343" y="1132" type="curve" smooth="yes"/>
      <point x="542" y="1132"/>
      <point x="623" y="1014"/>
      <point x="742" y="1014" type="curve" smooth="yes"/>
      <point x="793" y="1014"/>
      <point x="850" y="1035"/>
    </contour>
  </outline>
</glyph>
<glyph name="cent" format="1">
  <advance width="1179"/>
  <unicode hex="00A2"/>
  <outline>
    <contour>
      <point x="558" y="262" type="curve"/>
      <point x="558" y="1165" type="line"/>
      <point x="530" y="1165"/>
      <point x="505" y="1166"/>
      <point x="484" y="1166" type="curve" smooth="yes"/>
      <point x="357" y="1166"/>
      <point x="343" y="1147"/>
      <point x="343" y="942" type="curve" smooth="yes"/>
      <point x="343" y="841"/>
      <point x="340" y="708"/>
      <point x="340" y="590" type="curve" smooth="yes"/>
      <point x="340" y="524"/>
      <point x="337" y="470"/>
      <point x="337" y="427" type="curve" smooth="yes"/>
      <point x="337" y="297"/>
      <point x="362" y="262"/>
    </contour>
    <contour>
      <point x="631" y="-72" type="line"/>
      <point x="558" y="-72" type="line"/>
      <point x="558" y="116" type="line"/>
      <point x="173" y="123"/>
      <point x="148" y="241"/>
      <point x="148" y="647" type="curve" smooth="yes"/>
      <point x="148" y="799" type="line" smooth="yes"/>
      <point x="148" y="1191"/>
      <point x="168" y="1306"/>
      <point x="558" y="1311" type="curve"/>
      <point x="558" y="1505" type="line"/>
      <point x="631" y="1505" type="line"/>
      <point x="631" y="1310" type="line"/>
      <point x="947" y="1304"/>
      <point x="1032" y="1223"/>
      <point x="1032" y="1028" type="curve" smooth="yes"/>
      <point x="1032" y="978"/>
      <point x="1028" y="938"/>
      <point x="1028" y="911" type="curve"/>
      <point x="840" y="911" type="line"/>
      <point x="840" y="963"/>
      <point x="842" y="1004"/>
      <point x="842" y="1037" type="curve" smooth="yes"/>
      <point x="842" y="1149"/>
      <point x="820" y="1163"/>
      <point x="631" y="1165" type="curve"/>
      <point x="631" y="260" type="line"/>
      <point x="665" y="258"/>
      <point x="694" y="256"/>
      <point x="719" y="256" type="curve" smooth="yes"/>
      <point x="809" y="256"/>
      <point x="840" y="288"/>
      <point x="840" y="510" type="curve"/>
      <point x="1028" y="510" type="line"/>
      <point x="1029" y="493"/>
      <point x="1030" y="481"/>
      <point x="1030" y="474" type="curve" smooth="yes"/>
      <point x="1030" y="193"/>
      <point x="940" y="116"/>
      <point x="631" y="116" type="curve"/>
    </contour>
  </outline>
</glyph>
<glyph name="sterling" format="1">
  <advance width="1497"/>
  <unicode hex="00A3"/>
  <outline>
    <contour>
      <point x="1338" y="1077" type="curve"/>
      <point x="1161" y="1054" type="line"/>
      <point x="1158" y="1126"/>
      <point x="1157" y="1199"/>
      <point x="1149" y="1271" type="curve" smooth="yes"/>
      <point x="1141" y="1344"/>
      <point x="1072" y="1353"/>
      <point x="852" y="1353" type="curve" smooth="yes"/>
      <point x="508" y="1353"/>
      <point x="482" y="1307"/>
      <point x="482" y="1207" type="curve" smooth="yes"/>
      <point x="482" y="1089"/>
      <point x="493" y="970"/>
      <point x="499" y="847" type="curve"/>
      <point x="1049" y="847" type="line"/>
      <point x="1049" y="701" type="line"/>
      <point x="502" y="701" type="line"/>
      <point x="500" y="546"/>
      <point x="493" y="396"/>
      <point x="478" y="244" type="curve"/>
      <point x="494" y="193"/>
      <point x="599" y="178"/>
      <point x="825" y="178" type="curve" smooth="yes"/>
      <point x="1055" y="178"/>
      <point x="1174" y="186"/>
      <point x="1179" y="255" type="curve" smooth="yes"/>
      <point x="1194" y="465" type="line"/>
      <point x="1349" y="437" type="line"/>
      <point x="1330" y="43"/>
      <point x="1306" y="0"/>
      <point x="879" y="0" type="curve" smooth="yes"/>
      <point x="805" y="0" type="line" smooth="yes"/>
      <point x="556" y="0"/>
      <point x="406" y="6"/>
      <point x="376" y="139" type="curve"/>
      <point x="360" y="46"/>
      <point x="283" y="0"/>
      <point x="148" y="0" type="curve"/>
      <point x="148" y="220" type="line"/>
      <point x="275" y="229"/>
      <point x="293" y="245"/>
      <point x="297" y="341" type="curve" smooth="yes"/>
      <point x="300" y="420"/>
      <point x="301" y="578"/>
      <point x="302" y="702" type="curve"/>
      <point x="150" y="702" type="line"/>
      <point x="150" y="848" type="line"/>
      <point x="298" y="848" type="line"/>
      <point x="291" y="938"/>
      <point x="282" y="1023"/>
      <point x="282" y="1112" type="curve" smooth="yes"/>
      <point x="282" y="1488"/>
      <point x="459" y="1542"/>
      <point x="828" y="1542" type="curve" smooth="yes"/>
      <point x="1312" y="1542"/>
      <point x="1318" y="1434"/>
    </contour>
  </outline>
</glyph>
<glyph name="dieresis" format="1">
  <advance width="982"/>
  <unicode hex="00A8"/>
  <outline>
    <contour>
      <point x="493" y="1097" type="move" smooth="yes"/>
    </contour>
    <contour>
      <point x="117" y="244" type="curve" smooth="yes"/>
      <point x="117" y="329"/>
      <point x="173" y="371"/>
      <point x="248" y="371" type="curve" smooth="yes"/>
      <point x="324" y="371"/>
      <point x="377" y="330"/>
      <point x="377" y="244" type="curve" smooth="yes"/>
      <point x="377" y="158"/>
      <point x="324" y="117"/>
      <point x="248" y="117" type="curve" smooth="yes"/>
      <point x="172" y="117"/>
      <point x="117" y="158"/>
    </contour>
    <contour>
      <point x="609" y="244" type="curve" smooth="yes"/>
      <point x="609" y="329"/>
      <point x="665" y="371"/>
      <point x="740" y="371" type="curve" smooth="yes"/>
      <point x="816" y="371"/>
      <point x="869" y="330"/>
      <point x="869" y="244" type="curve" smooth="yes"/>
      <point x="869" y="158"/>
      <point x="816" y="117"/>
      <point x="740" y="117" type="curve" smooth="yes"/>
      <point x="664" y="117"/>
      <point x="609" y="158"/>
    </contour>
  </outline>
</glyph>
<glyph name="copyright" format="1">
  <advance width="1826"/>
  <unicode hex="00A9"/>
  <outline>
    <contour>
      <point x="1171" y="644" type="curve"/>
      <point x="1297" y="644" type="line"/>
      <point x="1297" y="283"/>
      <point x="1270" y="226"/>
      <point x="884" y="226" type="curve" smooth="yes"/>
      <point x="528" y="226"/>
      <point x="510" y="332"/>
      <point x="510" y="865" type="curve" smooth="yes"/>
      <point x="510" y="1214"/>
      <point x="556" y="1327"/>
      <point x="894" y="1327" type="curve" smooth="yes"/>
      <point x="1235" y="1327"/>
      <point x="1297" y="1285"/>
      <point x="1297" y="909" type="curve"/>
      <point x="1171" y="909" type="line"/>
      <point x="1169" y="939"/>
      <point x="1169" y="967"/>
      <point x="1169" y="992" type="curve" smooth="yes"/>
      <point x="1169" y="1048" type="line" smooth="yes"/>
      <point x="1169" y="1175"/>
      <point x="1155" y="1212"/>
      <point x="921" y="1212" type="curve" smooth="yes"/>
      <point x="666" y="1212"/>
      <point x="655" y="1187"/>
      <point x="655" y="1064" type="curve" smooth="yes"/>
      <point x="655" y="785" type="line" smooth="yes"/>
      <point x="655" y="667"/>
      <point x="648" y="580"/>
      <point x="648" y="515" type="curve" smooth="yes"/>
      <point x="648" y="370"/>
      <point x="684" y="341"/>
      <point x="921" y="341" type="curve" smooth="yes"/>
      <point x="1206" y="341"/>
      <point x="1159" y="395"/>
    </contour>
    <contour>
      <point x="249" y="760" type="curve" smooth="yes"/>
      <point x="249" y="325"/>
      <point x="572" y="92"/>
      <point x="903" y="92" type="curve" smooth="yes"/>
      <point x="1256" y="92"/>
      <point x="1577" y="323"/>
      <point x="1577" y="760" type="curve" smooth="yes"/>
      <point x="1577" y="1211"/>
      <point x="1244" y="1438"/>
      <point x="912" y="1438" type="curve" smooth="yes"/>
      <point x="580" y="1438"/>
      <point x="249" y="1212"/>
    </contour>
    <contour>
      <point x="136" y="762" type="curve" smooth="yes"/>
      <point x="136" y="1272"/>
      <point x="524" y="1532"/>
      <point x="914" y="1532" type="curve" smooth="yes"/>
      <point x="1309" y="1532"/>
      <point x="1690" y="1267"/>
      <point x="1690" y="761" type="curve" smooth="yes"/>
      <point x="1690" y="268"/>
      <point x="1313" y="0"/>
      <point x="923" y="0" type="curve" smooth="yes"/>
      <point x="513" y="0"/>
      <point x="136" y="263"/>
    </contour>
  </outline>
</glyph>
<glyph name="uni00AD" format="1">
  <advance width="1050"/>
  <unicode hex="00AD"/>
  <outline>
    <contour>
      <point x="920" y="728" type="line"/>
      <point x="920" y="549" type="line"/>
      <point x="134" y="549" type="line"/>
      <point x="134" y="728" type="line"/>
    </contour>
  </outline>
</glyph>
<glyph name="registered" format="1">
  <advance width="1826"/>
  <unicode hex="00AE"/>
  <outline>
    <contour>
      <point x="955" y="1183" type="curve" smooth="yes"/>
      <point x="724" y="1183" type="line"/>
      <point x="724" y="832" type="line"/>
      <point x="921" y="832" type="line" smooth="yes"/>
      <point x="1112" y="832"/>
      <point x="1146" y="854"/>
      <point x="1146" y="1007" type="curve" smooth="yes"/>
      <point x="1146" y="1176"/>
      <point x="1088" y="1183"/>
    </contour>
    <contour>
      <point x="1145" y="501" type="curve" smooth="yes"/>
      <point x="1145" y="518" type="line" smooth="yes"/>
      <point x="1145" y="694"/>
      <point x="1143" y="734"/>
      <point x="988" y="734" type="curve" smooth="yes"/>
      <point x="724" y="734" type="line"/>
      <point x="724" y="578"/>
      <point x="725" y="423"/>
      <point x="725" y="267" type="curve"/>
      <point x="597" y="267" type="line"/>
      <point x="597" y="1288" type="line"/>
      <point x="921" y="1288" type="line" smooth="yes"/>
      <point x="1195" y="1288"/>
      <point x="1283" y="1248"/>
      <point x="1283" y="1021" type="curve" smooth="yes"/>
      <point x="1283" y="874"/>
      <point x="1226" y="796"/>
      <point x="1113" y="788" type="curve"/>
      <point x="1212" y="783"/>
      <point x="1275" y="718"/>
      <point x="1275" y="609" type="curve" smooth="yes"/>
      <point x="1275" y="268" type="line"/>
      <point x="1141" y="268" type="line"/>
      <point x="1141" y="339"/>
      <point x="1145" y="424"/>
    </contour>
    <contour>
      <point x="914" y="92" type="curve" smooth="yes"/>
      <point x="1262" y="92"/>
      <point x="1577" y="331"/>
      <point x="1577" y="760" type="curve" smooth="yes"/>
      <point x="1577" y="1211"/>
      <point x="1244" y="1438"/>
      <point x="912" y="1438" type="curve" smooth="yes"/>
      <point x="580" y="1438"/>
      <point x="249" y="1212"/>
      <point x="249" y="760" type="curve" smooth="yes"/>
      <point x="249" y="317"/>
      <point x="579" y="92"/>
    </contour>
    <contour>
      <point x="912" y="0" type="curve" smooth="yes"/>
      <point x="507" y="0"/>
      <point x="136" y="271"/>
      <point x="136" y="762" type="curve" smooth="yes"/>
      <point x="136" y="1272"/>
      <point x="524" y="1532"/>
      <point x="914" y="1532" type="curve" smooth="yes"/>
      <point x="1309" y="1532"/>
      <point x="1690" y="1267"/>
      <point x="1690" y="761" type="curve" smooth="yes"/>
      <point x="1690" y="260"/>
      <point x="1306" y="0"/>
    </contour>
  </outline>
</glyph>
<glyph name="paragraph" format="1">
  <advance width="1130"/>
  <unicode hex="00B6"/>
  <outline>
    <contour>
      <point x="645" y="844" type="line"/>
      <point x="645" y="0" type="line"/>
      <point x="491" y="0" type="line"/>
      <point x="491" y="845" type="line"/>
      <point x="264" y="845"/>
      <point x="134" y="955"/>
      <point x="134" y="1190" type="curve" smooth="yes"/>
      <point x="134" y="1445"/>
      <point x="295" y="1521"/>
      <point x="582" y="1521" type="curve" smooth="yes"/>
      <point x="969" y="1521" type="line"/>
      <point x="969" y="0" type="line"/>
      <point x="816" y="0" type="line"/>
      <point x="816" y="844" type="line"/>
    </contour>
  </outline>
</glyph>
<glyph name="periodcentered" format="1">
  <advance width="531"/>
  <unicode hex="00B7"/>
  <outline>
    <contour>
      <point x="265" y="528" type="curve" smooth="yes"/>
      <point x="184" y="528"/>
      <point x="125" y="596"/>
      <point x="125" y="682" type="curve" smooth="yes"/>
      <point x="125" y="771"/>
      <point x="177" y="836"/>
      <point x="265" y="836" type="curve" smooth="yes"/>
      <point x="347" y="836"/>
      <point x="405" y="769"/>
      <point x="405" y="682" type="curve" smooth="yes"/>
      <point x="405" y="594"/>
      <point x="353" y="528"/>
    </contour>
  </outline>
</glyph>
<glyph name="uni00B9" format="1">
  <advance width="585"/>
  <unicode hex="00B9"/>
  <outline>
    <contour>
      <point x="303" y="1425" type="curve"/>
      <point x="427" y="1425" type="line"/>
      <point x="427" y="240" type="line"/>
      <point x="277" y="240" type="line"/>
      <point x="277" y="1235" type="line"/>
      <point x="129" y="1235" type="line"/>
      <point x="129" y="1309" type="line"/>
      <point x="203.667" y="1323.33"/>
      <point x="261.667" y="1362"/>
    </contour>
  </outline>
</glyph>
<glyph name="ordmasculine" format="1">
  <advance width="975"/>
  <unicode hex="00BA"/>
  <outline>
    <contour>
      <point x="488" y="575" type="curve" smooth="yes"/>
      <point x="620" y="575"/>
      <point x="674" y="588"/>
      <point x="676" y="643" type="curve" smooth="yes"/>
      <point x="680" y="723"/>
      <point x="684" y="805"/>
      <point x="684" y="892" type="curve" smooth="yes"/>
      <point x="684" y="978"/>
      <point x="676" y="1063"/>
      <point x="676" y="1143" type="curve" smooth="yes"/>
      <point x="676" y="1206"/>
      <point x="587" y="1216"/>
      <point x="488" y="1216" type="curve" smooth="yes"/>
      <point x="389" y="1216"/>
      <point x="300" y="1206"/>
      <point x="300" y="1143" type="curve" smooth="yes"/>
      <point x="300" y="1063"/>
      <point x="292" y="978"/>
      <point x="292" y="892" type="curve" smooth="yes"/>
      <point x="292" y="805"/>
      <point x="296" y="723"/>
      <point x="300" y="643" type="curve" smooth="yes"/>
      <point x="302" y="588"/>
      <point x="356" y="575"/>
    </contour>
    <contour>
      <point x="487" y="1319" type="curve" smooth="yes"/>
      <point x="489" y="1319" type="line" smooth="yes"/>
      <point x="796" y="1319"/>
      <point x="832" y="1249"/>
      <point x="832" y="895" type="curve" smooth="yes"/>
      <point x="832" y="558"/>
      <point x="809" y="471"/>
      <point x="487" y="471" type="curve" smooth="yes"/>
      <point x="167" y="471"/>
      <point x="144" y="558"/>
      <point x="144" y="895" type="curve" smooth="yes"/>
      <point x="144" y="1249"/>
      <point x="180" y="1319"/>
    </contour>
  </outline>
</glyph>
<glyph name="onequarter" format="1">
  <advance width="885"/>
  <unicode hex="00BC"/>
  <outline>
    <contour>
      <point x="256" y="220" type="curve"/>
      <point x="428" y="220" type="line"/>
      <point x="428" y="544" type="line"/>
      <point x="393" y="477.333"/>
      <point x="335.667" y="369.333"/>
    </contour>
    <contour>
      <point x="757" y="734" type="line"/>
      <point x="137" y="734" type="line"/>
      <point x="137" y="805" type="line"/>
      <point x="757" y="805" type="line"/>
    </contour>
    <contour>
      <point x="490" y="1499" type="line"/>
      <point x="490" y="898" type="line"/>
      <point x="399" y="898" type="line"/>
      <point x="399" y="1378" type="line"/>
      <point x="330" y="1378" type="line"/>
      <point x="330" y="1431" type="line"/>
      <point x="382" y="1431"/>
      <point x="412" y="1458"/>
      <point x="412" y="1499" type="curve"/>
    </contour>
    <contour>
      <point x="519" y="152" type="line"/>
      <point x="519" y="0" type="line"/>
      <point x="428" y="0" type="line"/>
      <point x="428" y="152" type="line"/>
      <point x="214" y="152" type="line"/>
      <point x="176" y="220" type="line"/>
      <point x="407" y="616" type="line"/>
      <point x="519" y="616" type="line"/>
      <point x="519" y="220" type="line"/>
      <point x="621" y="220" type="line"/>
      <point x="621" y="152" type="line"/>
    </contour>
  </outline>
</glyph>
<glyph name="questiondown" format="1">
  <advance width="921"/>
  <unicode hex="00BF"/>
  <outline>
    <contour>
      <point x="762" y="223" type="curve"/>
      <point x="801" y="59" type="line"/>
      <point x="687" y="4"/>
      <point x="586" y="-22"/>
      <point x="498" y="-22" type="curve" smooth="yes"/>
      <point x="257" y="-22"/>
      <point x="126" y="101"/>
      <point x="126" y="338" type="curve" smooth="yes"/>
      <point x="126" y="473"/>
      <point x="209" y="588"/>
      <point x="307" y="704" type="curve" smooth="yes"/>
      <point x="424" y="844"/>
      <point x="454" y="869"/>
      <point x="469" y="1020" type="curve"/>
      <point x="503" y="1020"/>
      <point x="538" y="1019"/>
      <point x="571" y="1019" type="curve"/>
      <point x="570" y="808"/>
      <point x="505" y="717"/>
      <point x="392" y="552" type="curve" smooth="yes"/>
      <point x="343" y="481"/>
      <point x="322" y="435"/>
      <point x="322" y="350" type="curve" smooth="yes"/>
      <point x="322" y="233"/>
      <point x="389" y="166"/>
      <point x="523" y="166" type="curve" smooth="yes"/>
      <point x="573" y="166"/>
      <point x="651" y="186"/>
    </contour>
    <contour>
      <point x="668" y="1379" type="curve" smooth="yes"/>
      <point x="668" y="1292"/>
      <point x="614" y="1225"/>
      <point x="527" y="1225" type="curve" smooth="yes"/>
      <point x="444" y="1225"/>
      <point x="384" y="1288"/>
      <point x="384" y="1379" type="curve" smooth="yes"/>
      <point x="384" y="1465"/>
      <point x="438" y="1533"/>
      <point x="526" y="1533" type="curve" smooth="yes"/>
      <point x="610" y="1533"/>
      <point x="668" y="1461"/>
    </contour>
  </outline>
</glyph>
<glyph name="AE" format="1">
  <advance width="2077"/>
  <unicode hex="00C6"/>
  <outline>
    <contour>
      <point x="984" y="1490" type="move" smooth="yes"/>
    </contour>
    <contour>
      <point x="1062" y="1342" type="curve"/>
      <point x="909" y="1068"/>
      <point x="753" y="795"/>
      <point x="598" y="523" type="curve"/>
      <point x="1061" y="523" type="line"/>
      <point x="1061" y="937" type="line" smooth="yes"/>
      <point x="1061" y="1073"/>
      <point x="1062" y="1208"/>
    </contour>
    <contour>
      <point x="1262" y="167" type="line"/>
      <point x="1936" y="167" type="line"/>
      <point x="1936" y="0" type="line"/>
      <point x="1061" y="0" type="line"/>
      <point x="1061" y="381" type="line"/>
      <point x="513" y="381" type="line"/>
      <point x="291" y="0" type="line"/>
      <point x="100" y="0" type="line"/>
      <point x="986" y="1490" type="line"/>
      <point x="1917" y="1490" type="line"/>
      <point x="1917" y="1323" type="line"/>
      <point x="1262" y="1323" type="line"/>
      <point x="1262" y="864" type="line"/>
      <point x="1806" y="864" type="line"/>
      <point x="1806" y="697" type="line"/>
      <point x="1262" y="697" type="line"/>
    </contour>
  </outline>
</glyph>
<glyph name="kgreenlandic" format="1">
  <advance width="1175"/>
  <unicode hex="0138"/>
  <outline>
    <contour>
      <point x="1009" y="1097" type="line"/>
      <point x="596" y="628" type="line"/>
      <point x="1045" y="0" type="line"/>
      <point x="828" y="0" type="line"/>
      <point x="446" y="542" type="line"/>
      <point x="354" y="439" type="line"/>
      <point x="354" y="0" type="line"/>
      <point x="156" y="0" type="line"/>
      <point x="156" y="1082" type="line"/>
      <point x="354" y="1098" type="line"/>
      <point x="354" y="752" type="line" smooth="yes"/>
      <point x="354" y="702"/>
      <point x="353" y="644"/>
      <point x="353" y="595" type="curve"/>
      <point x="409" y="655"/>
      <point x="470" y="717"/>
      <point x="524" y="782" type="curve" smooth="yes"/>
      <point x="785" y="1097" type="line"/>
    </contour>
  </outline>
</glyph>
<glyph name="Lslash" format="1">
  <advance width="1163"/>
  <unicode hex="0141"/>
  <outline>
    <contour>
      <point x="473" y="171" type="line"/>
      <point x="1047" y="171" type="line"/>
      <point x="1047" y="0" type="line"/>
      <point x="270" y="0" type="line"/>
      <point x="270" y="610" type="line"/>
      <point x="136" y="540" type="line"/>
      <point x="136" y="733" type="line"/>
      <point x="270" y="803" type="line"/>
      <point x="270" y="1490" type="line"/>
      <point x="473" y="1490" type="line"/>
      <point x="473" y="907" type="line"/>
      <point x="770" y="1060" type="line"/>
      <point x="770" y="867" type="line"/>
      <point x="473" y="714" type="line"/>
    </contour>
  </outline>
</glyph>
<glyph name="caron" format="1">
  <advance width="801"/>
  <unicode hex="02C7"/>
  <outline>
    <contour>
      <point x="407" y="1097" type="move" smooth="yes"/>
    </contour>
    <contour>
      <point x="176" y="1806" type="line"/>
      <point x="407" y="1570" type="line"/>
      <point x="638" y="1806" type="line"/>
      <point x="693" y="1752" type="line"/>
      <point x="501" y="1443" type="line"/>
      <point x="475" y="1404"/>
      <point x="443" y="1391"/>
      <point x="407" y="1391" type="curve" smooth="yes"/>
      <point x="371" y="1391"/>
      <point x="337.738" y="1403.19"/>
      <point x="313" y="1443" type="curve" smooth="yes"/>
      <point x="121" y="1752" type="line"/>
    </contour>
  </outline>
</glyph>
<glyph name="breve" format="1">
  <advance width="743"/>
  <unicode hex="02D8"/>
  <outline>
    <contour>
      <point x="378.5" y="1097" type="move" smooth="yes"/>
    </contour>
    <contour>
      <point x="83" y="1748" type="curve"/>
      <point x="225" y="1748" type="line"/>
      <point x="224" y="1745"/>
      <point x="224" y="1741"/>
      <point x="224" y="1736" type="curve" smooth="yes"/>
      <point x="224" y="1615"/>
      <point x="255" y="1574"/>
      <point x="378" y="1574" type="curve" smooth="yes"/>
      <point x="503" y="1574"/>
      <point x="532" y="1616"/>
      <point x="532" y="1748" type="curve"/>
      <point x="674" y="1748" type="line"/>
      <point x="674" y="1518"/>
      <point x="575" y="1448"/>
      <point x="341" y="1448" type="curve" smooth="yes"/>
      <point x="195" y="1448"/>
      <point x="83" y="1526"/>
    </contour>
  </outline>
</glyph>
<glyph name="uni030F" format="1">
  <advance width="1127"/>
  <unicode hex="030F"/>
  <outline>
    <contour>
      <point x="547" y="1097" type="move" smooth="yes"/>
    </contour>
    <contour>
      <point x="284" y="1605" type="curve" smooth="yes"/>
      <point x="322" y="1573"/>
      <point x="580" y="1308"/>
      <point x="580" y="1308" type="curve"/>
      <point x="563" y="1287" type="line" smooth="yes"/>
      <point x="563" y="1288"/>
      <point x="193" y="1425"/>
      <point x="168" y="1436" type="curve" smooth="yes"/>
      <point x="119" y="1457"/>
      <point x="97" y="1501"/>
      <point x="97" y="1540" type="curve" smooth="yes"/>
      <point x="97" y="1591"/>
      <point x="134" y="1640"/>
      <point x="200" y="1640" type="curve" smooth="yes"/>
      <point x="232" y="1640"/>
      <point x="260" y="1624"/>
    </contour>
    <contour>
      <point x="713" y="1605" type="curve" smooth="yes"/>
      <point x="751" y="1573"/>
      <point x="1009" y="1308"/>
      <point x="1009" y="1308" type="curve"/>
      <point x="992" y="1287" type="line" smooth="yes"/>
      <point x="992" y="1288"/>
      <point x="622" y="1425"/>
      <point x="597" y="1436" type="curve" smooth="yes"/>
      <point x="548" y="1457"/>
      <point x="526" y="1501"/>
      <point x="526" y="1540" type="curve" smooth="yes"/>
      <point x="526" y="1591"/>
      <point x="563" y="1640"/>
      <point x="629" y="1640" type="curve" smooth="yes"/>
      <point x="661" y="1640"/>
      <point x="689" y="1624"/>
    </contour>
  </outline>
</glyph>
<glyph name="uni0311" format="1">
  <advance width="843"/>
  <unicode hex="0311"/>
  <outline>
    <contour>
      <point x="717" y="1448" type="curve"/>
      <point x="575" y="1448" type="line"/>
      <point x="576" y="1451"/>
      <point x="576" y="1455"/>
      <point x="576" y="1460" type="curve" smooth="yes"/>
      <point x="576" y="1581"/>
      <point x="545" y="1622"/>
      <point x="422" y="1622" type="curve" smooth="yes"/>
      <point x="297" y="1622"/>
      <point x="268" y="1580"/>
      <point x="268" y="1448" type="curve"/>
      <point x="126" y="1448" type="line"/>
      <point x="126" y="1678"/>
      <point x="225" y="1748"/>
      <point x="459" y="1748" type="curve" smooth="yes"/>
      <point x="605" y="1748"/>
      <point x="717" y="1670"/>
    </contour>
  </outline>
</glyph>
<glyph name="uni0326" format="1">
  <advance width="502"/>
  <unicode hex="0326"/>
  <outline>
    <contour>
      <point x="339.5" y="0" type="move" smooth="yes"/>
    </contour>
    <contour>
      <point x="241" y="-140" type="curve" smooth="yes"/>
      <point x="346" y="-140"/>
      <point x="413" y="-225"/>
      <point x="413" y="-356" type="curve" smooth="yes"/>
      <point x="413" y="-528"/>
      <point x="280" y="-691"/>
      <point x="100" y="-691" type="curve"/>
      <point x="100" y="-631" type="line"/>
      <point x="177" y="-628"/>
      <point x="228" y="-558"/>
      <point x="228" y="-466" type="curve"/>
      <point x="133" y="-461"/>
      <point x="86" y="-405"/>
      <point x="86" y="-296" type="curve" smooth="yes"/>
      <point x="86" y="-239"/>
      <point x="144" y="-140"/>
    </contour>
  </outline>
</glyph>
<glyph name="endash" format="1">
  <advance width="1077"/>
  <unicode hex="2013"/>
  <outline>
    <contour>
      <point x="132" y="768" type="line"/>
      <point x="943" y="768" type="line"/>
      <point x="943" y="580" type="line"/>
      <point x="132" y="580" type="line"/>
    </contour>
  </outline>
</glyph>
<glyph name="emdash" format="1">
  <advance width="1794"/>
  <unicode hex="2014"/>
  <outline>
    <contour>
      <point x="132" y="768" type="line"/>
      <point x="1660" y="768" type="line"/>
      <point x="1660" y="580" type="line"/>
      <point x="132" y="580" type="line"/>
    </contour>
  </outline>
</glyph>
<glyph name="quotedblbase" format="1">
  <advance width="718"/>
  <unicode hex="201E"/>
  <outline>
    <contour>
      <point x="514" y="-276" type="curve"/>
      <point x="489" y="-270" type="line"/>
      <point x="489" y="-270"/>
      <point x="414" y="85"/>
      <point x="414" y="164" type="curve" smooth="yes"/>
      <point x="414" y="261"/>
      <point x="428" y="301"/>
      <point x="501" y="301" type="curve" smooth="yes"/>
      <point x="557" y="301"/>
      <point x="587" y="261"/>
      <point x="587" y="179" type="curve" smooth="yes"/>
      <point x="587" y="96"/>
      <point x="514" y="-276"/>
    </contour>
    <contour>
      <point x="230" y="-276" type="curve"/>
      <point x="205" y="-270" type="line"/>
      <point x="205" y="-270"/>
      <point x="130" y="85"/>
      <point x="130" y="164" type="curve" smooth="yes"/>
      <point x="130" y="261"/>
      <point x="144" y="301"/>
      <point x="217" y="301" type="curve" smooth="yes"/>
      <point x="273" y="301"/>
      <point x="303" y="261"/>
      <point x="303" y="179" type="curve" smooth="yes"/>
      <point x="303" y="96"/>
      <point x="230" y="-276"/>
    </contour>
  </outline>
</glyph>
<glyph name="bullet" format="1">
  <advance width="941"/>
  <unicode hex="2022"/>
  <outline>
    <contour>
      <point x="129" y="662" type="curve" smooth="yes"/>
      <point x="129" y="851"/>
      <point x="254" y="1030"/>
      <point x="477" y="1030" type="curve" smooth="yes"/>
      <point x="694" y="1030"/>
      <point x="810" y="858"/>
      <point x="810" y="664" type="curve" smooth="yes"/>
      <point x="810" y="467"/>
      <point x="690" y="298"/>
      <point x="475" y="298" type="curve" smooth="yes"/>
      <point x="256" y="298"/>
      <point x="129" y="471"/>
    </contour>
  </outline>
</glyph>
<glyph name="uniFB01" format="1">
  <advance width="1198"/>
  <unicode hex="FB01"/>
  <outline>
    <contour>
      <point x="840" y="1348" type="line"/>
      <point x="840" y="1521" type="line"/>
      <point x="1037" y="1521" type="line"/>
      <point x="1037" y="1348" type="line"/>
    </contour>
    <contour>
      <point x="464" y="1097" type="curve"/>
      <point x="1037" y="1097" type="line"/>
      <point x="1037" y="0" type="line"/>
      <point x="840" y="0" type="line"/>
      <point x="840" y="984" type="line"/>
      <point x="464" y="984" type="line"/>
      <point x="464" y="0" type="line"/>
      <point x="267" y="0" type="line"/>
      <point x="267" y="984" type="line"/>
      <point x="138" y="984" type="line"/>
      <point x="138" y="1097" type="line"/>
      <point x="267" y="1097" type="line"/>
      <point x="267" y="1416"/>
      <point x="276" y="1522"/>
      <point x="498" y="1522" type="curve" smooth="yes"/>
      <point x="549" y="1522"/>
      <point x="605" y="1517"/>
      <point x="668" y="1505" type="curve"/>
      <point x="668" y="1362" type="line"/>
      <point x="632" y="1364"/>
      <point x="597" y="1365"/>
      <point x="564" y="1365" type="curve" smooth="yes"/>
      <point x="541" y="1365" type="line" smooth="yes"/>
      <point x="472" y="1365"/>
      <point x="463" y="1359"/>
      <point x="463" y="1235" type="curve" smooth="yes"/>
      <point x="463" y="1200"/>
      <point x="464" y="1155"/>
    </contour>
  </outline>
</glyph>
